<svg xmlns="http://www.w3.org/2000/svg" viewBox="0 0 57.01 60.99"><defs><style>.cls-1{isolation:isolate;}.cls-2{fill:#fff;fill-rule:evenodd;}</style></defs><title>item 3-4</title><g id="Слой_2" data-name="Слой 2"><g id="Мегадор" class="cls-1"><g id="_3" data-name="3"><g id="Shape_22" data-name="Shape 22"><path class="cls-2" d="M30.42,3.78,28.47,2.45l.12,2.34L26.71,6.22,29,6.82,29.79,9l1.29-2L33.44,7,32,5.19l.67-2.25Zm21.48,30c-.23-11.58-9.41-21-21.12-22.14l.25-.1a6.09,6.09,0,0,0,3.16-3.47,4.94,4.94,0,0,1-8.4-.8A4.85,4.85,0,0,1,28.12.82,4.93,4.93,0,0,1,30.46.36a6.19,6.19,0,0,0-4.71.23A6.06,6.06,0,0,0,26,11.7C14.42,12.88,5.34,22.3,5.1,33.83H0V61H22.24A23.45,23.45,0,0,1,22,57.32c0-7,2.93-12.62,6.55-12.62s6.55,5.65,6.55,12.62A23.6,23.6,0,0,1,34.77,61H57V33.83Z"/></g></g></g></g></svg>