<svg xmlns="http://www.w3.org/2000/svg" viewBox="0 0 59 60"><defs><style>.cls-1{isolation:isolate;}.cls-2{fill:#fff;fill-rule:evenodd;}</style></defs><title>item 2-5</title><g id="Слой_2" data-name="Слой 2"><g id="Мегадор" class="cls-1"><g id="_3" data-name="3"><g id="Shape_13" data-name="Shape 13"><path class="cls-2" d="M32.8,42.74H26.2a2.79,2.79,0,0,0-2.51,3V59.85c2.1.1,4.09.15,5.81.15s3.7,0,5.81-.15V45.73A2.79,2.79,0,0,0,32.8,42.74ZM29.5,35.3c-7.66,0-23.4-.62-29.5-5.42V52.5C0,57,11.31,59,21.19,59.7v-14c0-3.3,2.25-6,5-6h6.6c2.76,0,5,2.69,5,6v14C47.7,59,59,57,59,52.5V29.88C52.9,34.68,37.16,35.3,29.5,35.3Zm-1.25-4.5a1.25,1.25,0,0,0,2.51,0V9.73H40.1a1.28,1.28,0,0,0,1.12-.67,1.23,1.23,0,0,0-.09-1.29l-2-2.9,2-2.9a1.25,1.25,0,0,0,.09-1.3A1.27,1.27,0,0,0,40.1,0H29.5a1.26,1.26,0,0,0-1.26,1.25V30.8ZM10.7,30a1.25,1.25,0,0,0,2.51,0V13.48h9.35a1.28,1.28,0,0,0,1.12-.67,1.23,1.23,0,0,0-.09-1.29l-2-2.9,2-2.9a1.25,1.25,0,0,0,.09-1.3,1.27,1.27,0,0,0-1.12-.66H12A1.26,1.26,0,0,0,10.69,5V30Zm5,0a3.71,3.71,0,0,1-.57,2c3.79.48,7.74.73,11.16.83a3.7,3.7,0,0,1-.56-2V17.88c-3.11.1-6.62.33-10,.74Zm17.55.83a3.7,3.7,0,0,1-.57,2c3.42-.1,7.37-.35,11.16-.83a3.7,3.7,0,0,1-.57-2V18.62c-3.41-.41-6.91-.64-10-.74ZM50.81,19.92V30a3.74,3.74,0,0,1-.08.74c4.78-1.16,8.27-2.88,8.27-5.4S55.56,21.08,50.81,19.92ZM8.27,30.71A3.78,3.78,0,0,1,8.19,30v-10C3.45,21.08,0,22.81,0,25.31S3.49,29.56,8.27,30.71ZM45.8,30a1.25,1.25,0,0,0,2.51,0V13.48h9.35a1.28,1.28,0,0,0,1.12-.67,1.23,1.23,0,0,0-.09-1.29l-2-2.9,2-2.9a1.25,1.25,0,0,0,.09-1.3,1.27,1.27,0,0,0-1.12-.66H47A1.26,1.26,0,0,0,45.79,5V30Z"/></g></g></g></g></svg>