<svg xmlns="http://www.w3.org/2000/svg" viewBox="0 0 64 64"><defs><style>.cls-1{isolation:isolate;}.cls-2{fill:#fff;fill-rule:evenodd;}</style></defs><title>item 4-1</title><g id="Слой_2" data-name="Слой 2"><g id="Мегадор" class="cls-1"><g id="_3" data-name="3"><g id="Shape_23" data-name="Shape 23"><path class="cls-2" d="M48,9.61,32.34,25.27,28.79,12.82H19.2l-4,13.9L12.8,0H6.4L3.21,35.2H0V64H12.8V54.41a6.4,6.4,0,1,1,12.8,0V64H64V25.59Zm-3.19,48H38.4v-6.4h6.4Zm0-12.8H38.4v-6.4h6.4Zm0-12.8H38.4v-6.4h6.4ZM57.6,57.62H51.2v-6.4h6.4Zm0-12.8H51.2v-6.4h6.4Zm0-12.8H51.2v-6.4h6.4Zm-32-22.4a3.2,3.2,0,0,0,3.19-3.19.85.85,0,0,0,.29,0,4.71,4.71,0,0,0,4.51,3.23A4.81,4.81,0,0,0,33.6,0a4.53,4.53,0,0,0-2.66.84A3.19,3.19,0,0,0,25.6,3.19a3.21,3.21,0,0,0,0,6.42Z"/></g></g></g></g></svg>