<svg xmlns="http://www.w3.org/2000/svg" viewBox="0 0 71 67.01"><defs><style>.cls-1{isolation:isolate;}.cls-2{fill:#fff;fill-rule:evenodd;}</style></defs><title>item 4-3</title><g id="Слой_2" data-name="Слой 2"><g id="Мегадор" class="cls-1"><g id="_3" data-name="3"><g id="Shape_27" data-name="Shape 27"><path class="cls-2" d="M28,55.37c0-.07,0-.1,0-.1s.05,0,.05-.1A11.22,11.22,0,0,0,31,53.57a5.22,5.22,0,0,0,1.8-2.91l0-.35a4.12,4.12,0,0,1,.15-.65V23.48a4.11,4.11,0,0,0-.55-2A7.41,7.41,0,0,0,31,19.67a8.72,8.72,0,0,0-1.9-1.36,4.23,4.23,0,0,0-1.95-.55H8.49a4.56,4.56,0,0,0-1.95.5,7.34,7.34,0,0,0-1.9,1.3,7.26,7.26,0,0,0-1.4,1.8,4,4,0,0,0-.55,1.91V49.86a3.6,3.6,0,0,0,.3,1.4,6.38,6.38,0,0,0,.8,1.36,9.66,9.66,0,0,0,1.1,1.2,5.31,5.31,0,0,0,1.2.85L7,55c.43.17.65.28.65.35L0,67H4.5l5.59-8.13H25.46L31,67h4.49L28.06,55.58ZM13.38,20.07a1,1,0,0,1,.25-.6.72.72,0,0,1,.55-.3h7.19a1,1,0,0,1,.4.2c.2.14.3.27.3.4v2.81a.62.62,0,0,1-.25.5.75.75,0,0,1-.45.2H14.18a1.24,1.24,0,0,1-.3-.2.66.66,0,0,1-.3-.3.59.59,0,0,1-.2-.4ZM6.19,27.69h0a3.55,3.55,0,0,1,.2-1.1,10,10,0,0,1,.7-1,2.63,2.63,0,0,1,.85-.7,2.35,2.35,0,0,1,1.15-.3H26.46a2.35,2.35,0,0,1,1,.3,5.12,5.12,0,0,1,.9.6,1.83,1.83,0,0,1,.6.8,1.65,1.65,0,0,1,.3,1v5.92a1.72,1.72,0,0,1-.3,1,5.77,5.77,0,0,1-.7.85,4.1,4.1,0,0,1-1,.6,2.23,2.23,0,0,1-1,.2H9.19a1.33,1.33,0,0,1-.3,0,.65.65,0,0,1-.3-.15,2.46,2.46,0,0,1-1.7-1,2.88,2.88,0,0,1-.7-1.86Zm5.14,23.17a2.82,2.82,0,0,1-2.15.9,2.67,2.67,0,0,1-2.1-.9,3.21,3.21,0,0,1-.8-2.21,2.9,2.9,0,0,1,2.89-2.91,3,3,0,0,1,2.15.8,2.77,2.77,0,0,1,.85,2.11A3.11,3.11,0,0,1,11.33,50.86Zm12.78,0a3.11,3.11,0,0,1-.85-2.21,2.69,2.69,0,0,1,.9-2.11,3,3,0,0,1,2.09-.8,2.74,2.74,0,0,1,2.1.85,2.9,2.9,0,0,1,.8,2.06,3.22,3.22,0,0,1-.8,2.21,2.66,2.66,0,0,1-2.1.9A2.82,2.82,0,0,1,24.11,50.86Zm26-21.25,9.87,17.62h0L63.17,44,59.62,20ZM69.76,1.24a4.23,4.23,0,0,0-6,0L53.29,11.77,27.2,7.86,24,11.1,43.16,21.95l-7.45,7.48v12L40,49.16h0l1.61-1.62-1-11L49.16,28,69.76,7.27A4.28,4.28,0,0,0,69.76,1.24Z"/></g></g></g></g></svg>