<svg xmlns="http://www.w3.org/2000/svg" viewBox="0 0 59.98 78.99"><defs><style>.cls-1{isolation:isolate;}.cls-2{fill:#fff;fill-rule:evenodd;}</style></defs><title>item 2-1</title><g id="Слой_2" data-name="Слой 2"><g id="Мегадор" class="cls-1"><g id="_3" data-name="3"><g id="Shape_11" data-name="Shape 11"><path class="cls-2" d="M59.33,44.42l-1.08-1.1a20.89,20.89,0,0,0-4.48-2.55l-1.88,6.11-1.08-3.19c2-2.83-.27-2.92-.54-2.92s-2.51.09-.54,2.92l-1.08,3.19-1.88-6.11a20.91,20.91,0,0,0-4.48,2.55A7.29,7.29,0,0,0,41,44.42c-1.08,1.09-.63,7.75,0,10.12a34.41,34.41,0,0,0,2.51,5.84,9.46,9.46,0,0,1,.72,2.74L45.86,79h8.65L56.1,63.12a10.31,10.31,0,0,1,.72-2.74,34.4,34.4,0,0,0,2.51-5.84C60,52.18,60.4,45.52,59.33,44.42ZM45.44,31.92s-.81,7.39,4.66,7.48c5.47-.09,4.66-7.48,4.66-7.48-.18-4.93-4.3-4.83-4.66-4.83S45.62,27,45.44,31.92Zm-3.5,44.33V62.85a6.93,6.93,0,0,0-.45-1.46,32,32,0,0,1-2.69-6.29,26.85,26.85,0,0,1-.72-6c-.09-4.2.63-5.47,1.26-6.2a11.65,11.65,0,0,1,1.52-1.37,7.49,7.49,0,0,1,1.08-.73V25.54h2.51v2.37a6,6,0,0,1,3.14-2.55V21.89h-3V15.05h-3l-4.66-5V0H35.76V10.22l-4.48,4.83h-3v6.84h-3V48.25h-3V42h-3l-4.66-5v-10H13.44V37L9,41.87H5.83v6.29h-3V77.9H0V79H43.56l-.27-2.74ZM8.6,76H6V68.78H8.6Zm0-9H6V59.75H8.6Zm0-9H6V50.71H8.6ZM15.41,76h-2.6V68.78h2.6Zm0-9h-2.6V59.75h2.6Zm0-9h-2.6V50.71h2.6ZM22.14,76h-2.6V68.78h2.6Zm0-9h-2.6V59.75h2.6Zm0-9h-2.6V50.71h2.6Zm8.78,18.33H28.41V25.54h2.51Zm6.72,0H35.13V25.54h2.51Z"/></g></g></g></g></svg>