<svg xmlns="http://www.w3.org/2000/svg" viewBox="0 0 58 58"><defs><style>.cls-1{isolation:isolate;}.cls-2{fill:#fff;fill-rule:evenodd;}</style></defs><title>item 2-3</title><g id="Слой_2" data-name="Слой 2"><g id="Мегадор" class="cls-1"><g id="_3" data-name="3"><g id="Shape_15" data-name="Shape 15"><path class="cls-2" d="M29,0A29,29,0,0,0,17.69,55.72l1.17-22.19h-.29a4.62,4.62,0,0,1-4.62-4.62L15.1,10.59a.46.46,0,0,1,.92,0l-.22,16.64a1,1,0,1,0,2,0l.69-16.64h0a.49.49,0,0,1,1,0l.23,16.64a1,1,0,1,0,2,0L22,10.59h0a.49.49,0,0,1,1,0l.7,16.64a1,1,0,1,0,2,0l-.22-16.64a.46.46,0,0,1,.92,0L27.52,28.9a4.62,4.62,0,0,1-4.62,4.62h-.29l1.26,24a28.89,28.89,0,0,0,13.25-.7l.57-11H34.24c0-19.74,3.81-35.75,8.5-35.75l0,35.54.45,8.61A29,29,0,0,0,29,0Z"/></g></g></g></g></svg>