<svg xmlns="http://www.w3.org/2000/svg" viewBox="0 0 53.46 45.16"><defs><style>.cls-1{isolation:isolate;}.cls-2{fill:#fff;fill-rule:evenodd;}</style></defs><title>item 1-4</title><g id="Слой_2" data-name="Слой 2"><g id="Мегадор" class="cls-1"><g id="_3" data-name="3"><g id="Shape_7" data-name="Shape 7"><path class="cls-2" d="M53.29,18,48.12,6.06a3.34,3.34,0,0,0-2.78-1.9h-3.4v-4s0-.08,0-.12H33.69s0,.08,0,.12v4h-20a4.74,4.74,0,0,0-3.24,1.58L.38,18.28c-.7.87-.39,1.59.68,1.59H5.3V45.16H23.5v-17h9.58v17H49.76V19.86h2.4C53.23,19.86,53.74,19,53.29,18ZM17.14,35.68a2,2,0,0,1-2,2.09H13.74a2,2,0,0,1-2-2.09V30.24a2,2,0,0,1,2-2.09h1.44a2,2,0,0,1,2,2.09Zm27.6-.51a2,2,0,0,1-2,2.09H40.12a2,2,0,0,1-2-2.09V30.76a2,2,0,0,1,2-2.09h2.66a2,2,0,0,1,2,2.09Z"/></g></g></g></g></svg>