<svg xmlns="http://www.w3.org/2000/svg" viewBox="0 0 60 58.85"><defs><style>.cls-1{isolation:isolate;}.cls-2{fill:#fff;fill-rule:evenodd;}</style></defs><title>item 3-3</title><g id="Слой_2" data-name="Слой 2"><g id="Мегадор" class="cls-1"><g id="_3" data-name="3"><g id="Shape_20" data-name="Shape 20"><path class="cls-2" d="M33.57,24.92h-7.2l-3.24,5.39,3.31,5.59h7.2l3.24-5.39Zm-13.8,11h4.34L22,32.26ZM59.83,11.39l-4-6a1,1,0,0,0-1.66,0l-4,6a1,1,0,0,0-.17.55v8H60v-8A1,1,0,0,0,59.83,11.39ZM56,17.93a1,1,0,0,1-2,0v-6a1,1,0,0,1,2,0Zm-46-6a1,1,0,0,0-.17-.55l-4-6a1,1,0,0,0-1.66,0l-4,6a1,1,0,0,0-.17.55v8H10Zm-4,6a1,1,0,0,1-2,0v-6a1,1,0,0,1,2,0Zm24,1-2.43,4h4.82Zm-6,6h-4.1l2,3.44ZM50,33.2,30.86.46a1,1,0,0,0-1.73,0L10,33.2V21.92H0V57.85a1,1,0,0,0,1,1H5v-11a5,5,0,0,1,10,0v11h3v-11a5,5,0,0,1,10,0v11h4v-11a5,5,0,0,1,10,0v11h3v-11a5,5,0,0,1,10,0v11h4a1,1,0,0,0,1-1V21.92H50Zm-7.14-8.77L39.2,30.51l3.39,5.73a1,1,0,0,1,.25.66,1,1,0,0,1-1,1H34.77l-3.91,6.5a1,1,0,0,1-.86.48h0a1,1,0,0,1-.86-.49l-3.85-6.5H18a1,1,0,0,1-.86-1.51L20.8,30.3l-3.48-5.88a1,1,0,0,1,.86-1.51h7.06l3.91-6.5a1,1,0,0,1,.86-.48h0a1,1,0,0,1,.86.49l3.85,6.5H42a1,1,0,0,1,.86,1.51ZM30,41.93l2.43-4H27.61Zm8-13.37,2.19-3.64H35.89ZM36,35.9h4.1l-2-3.44Z"/></g></g></g></g></svg>