<svg xmlns="http://www.w3.org/2000/svg" viewBox="0 0 60 68"><defs><style>.cls-1{isolation:isolate;}.cls-2{fill:#fff;fill-rule:evenodd;}</style></defs><title>item 3-1</title><g id="Слой_2" data-name="Слой 2"><g id="Мегадор" class="cls-1"><g id="_3" data-name="3"><g id="Shape_18" data-name="Shape 18"><path class="cls-2" d="M0,29.18H19.38L10.23,7.26V4H13V2.9H10.23V0H9.15V2.9h-3V4h3V7.26Zm9.7-6.74a2.12,2.12,0,1,1-2.14,2.12A2.13,2.13,0,0,1,9.7,22.44Zm9.64,22.75H60L56,32.41H19.34Zm0,22.82H56V46.65H19.34ZM46.47,49.7h2.72v2.7H46.47Zm0,3.33h2.72v2.71H46.47ZM42.55,49.7h2.72v2.7H42.55Zm0,3.33h2.72v2.71H42.55ZM30,49.7h2.72v2.7H30ZM30,53h2.72v2.71H30ZM26.14,49.7h2.72v2.7H26.14Zm0,3.33h2.72v2.71H26.14ZM1.75,68H17.64V30.55H1.75Zm8.54-32.86H13V40H10.28Zm0,6H13v4.91H10.28Zm-3.91-6H9.1V40H6.38Zm0,6H9.1v4.91H6.38ZM6.1,61.77c0-2.6,1.61-4.71,3.59-4.71s3.59,2.1,3.59,4.71v4.89H6.1Z"/></g></g></g></g></svg>