<svg xmlns="http://www.w3.org/2000/svg" viewBox="0 0 63.02 59.99"><defs><style>.cls-1{isolation:isolate;}.cls-2{fill:#fff;fill-rule:evenodd;}</style></defs><title>item 2-2</title><g id="Слой_2" data-name="Слой 2"><g id="Мегадор" class="cls-1"><g id="_3" data-name="3"><g id="Shape_12" data-name="Shape 12"><path class="cls-2" d="M57.08,0h-52V3.28h52ZM12.73,43.56H24.15V32.13H12.73ZM63,23.23V15.5L57.34,5.31h-52L0,15.5v7.78a3.34,3.34,0,0,0,3.33,3.34,3.3,3.3,0,0,0,2.22-.86V60H56.86V25A3.33,3.33,0,0,0,63,23.27S63,23.24,63,23.23ZM44.08,49a1.74,1.74,0,1,1,1.73-1.74A1.74,1.74,0,0,1,44.08,49Zm10.55,8.74H47.4v-22H35.51v22H7.78V23.27h.78a3.34,3.34,0,1,0,6.67,0h1.29a3.33,3.33,0,1,0,6.67,0h1.3a3.33,3.33,0,1,0,6.67,0h1.29a3.33,3.33,0,1,0,6.67,0h1.3a3.33,3.33,0,1,0,6.67,0h1.3a3.32,3.32,0,0,0,6.25,1.59Z"/></g></g></g></g></svg>