<svg xmlns="http://www.w3.org/2000/svg" viewBox="0 0 74 45"><defs><style>.cls-1{isolation:isolate;}.cls-2{fill:#fff;fill-rule:evenodd;}</style></defs><title>item 2-4</title><g id="Слой_2" data-name="Слой 2"><g id="Мегадор" class="cls-1"><g id="_3" data-name="3"><g id="Shape_14" data-name="Shape 14"><path class="cls-2" d="M72.06,14.21H68.78a1.93,1.93,0,0,0-1.94,1.92v9.92H7.16V1.92A1.93,1.93,0,0,0,5.22,0H1.94A1.93,1.93,0,0,0,0,1.92V43.07A1.93,1.93,0,0,0,1.94,45H5.22a1.93,1.93,0,0,0,1.94-1.92V37.89H66.84v5.18A1.93,1.93,0,0,0,68.78,45h3.28A1.93,1.93,0,0,0,74,43.08V16.13A1.93,1.93,0,0,0,72.06,14.21ZM16.54,21.16a7,7,0,1,0-7-7A7,7,0,0,0,16.54,21.16Zm17.29-14a6.89,6.89,0,0,0-5.3,1.72A6.78,6.78,0,0,0,26.26,14v7.34H64.8C62,15.83,51,9,33.83,7.21Z"/></g></g></g></g></svg>