<svg xmlns="http://www.w3.org/2000/svg" viewBox="0 0 45.01 71"><defs><style>.cls-1{isolation:isolate;}.cls-2{fill:#fff;fill-rule:evenodd;}</style></defs><title>item 3-2</title><g id="Слой_2" data-name="Слой 2"><g id="Мегадор" class="cls-1"><g id="_3" data-name="3"><g id="Shape_19" data-name="Shape 19"><path class="cls-2" d="M39.15,34.27a5.6,5.6,0,0,0-.76.06V32.78h0V27.69H29v6.82h-.71V26A3.35,3.35,0,0,1,29,27.44h9.4v.13A3.22,3.22,0,0,1,39.15,26c0-.06.43-.55.47-.62a4.24,4.24,0,0,0,.67-1.77c.44-3.67-3.87-4.31-5.33-6.87a6.73,6.73,0,0,1-.62-1.54c-.09-.33-.66-2-.42-2.26a.63.63,0,0,0-.15-1l-.07,0-.07,0a.63.63,0,0,0-.16,1c.24.25-.33,1.93-.42,2.26a6.76,6.76,0,0,1-.62,1.54c-.89,1.57-2.85,2.42-4.14,3.68v-.06a4.23,4.23,0,0,1,1-2c.05-.07.56-.72.62-.81a5.53,5.53,0,0,0,.88-2.31c.57-4.79-5.06-5.64-7-9a8.85,8.85,0,0,1-.81-2c-.12-.43-.86-2.62-.55-2.95A.83.83,0,0,0,22.24,0l-.09,0-.09,0a.83.83,0,0,0-.2,1.25c.31.33-.43,2.52-.55,2.95a8.86,8.86,0,0,1-.81,2c-1.9,3.34-7.53,4.18-7,9a5.54,5.54,0,0,0,.88,2.31c.06.09.56.74.61.81a4.21,4.21,0,0,1,1,2v.12c-1.28-1.3-3.3-2.15-4.2-3.74a6.81,6.81,0,0,1-.62-1.54c-.09-.33-.66-2-.42-2.26a.63.63,0,0,0-.16-1l-.07,0-.07,0a.63.63,0,0,0-.16,1c.24.25-.33,1.93-.42,2.26a6.79,6.79,0,0,1-.62,1.54C7.83,19.3,3.53,19.94,4,23.61a4.25,4.25,0,0,0,.67,1.77c0,.07.43.56.47.62a3.22,3.22,0,0,1,.75,1.57v-.13h9.39A3.2,3.2,0,0,1,16,26l0,0v8.57h-.77V27.69H5.85v4.85h0v1.72a5.92,5.92,0,0,0-5.85,6V71H23.87V62.37a3.94,3.94,0,0,1,7.88,0V71H45V40.25A5.92,5.92,0,0,0,39.15,34.27Zm-32.61,21H5.17v-8.9a.69.69,0,1,1,1.37,0Zm2.59-21H8.29V28.82a.42.42,0,1,1,.84,0Zm1.73,0H10V28.82h0a.42.42,0,1,1,.84,0Zm1.73,0h-.84V28.82a.42.42,0,1,1,.84,0Zm5,21H16.27v-8.9a.69.69,0,1,1,1.37,0Zm2.8-22.1H19.07v-8.9a.69.69,0,1,1,1.37,0Zm2.4,0H21.47v-8.9a.69.69,0,1,1,1.37,0ZM16.36,20.87c-.1-.12-.2-.23-.3-.34H28.2l-.31.34Zm8.89,12.31H23.87v-8.9a.69.69,0,1,1,1.38,0Zm3.49,22.1H27.37v-8.9a.69.69,0,1,1,1.37,0Zm3.65-21h-.84V28.82a.42.42,0,1,1,.84,0Zm1.73,0h-.84V28.82a.42.42,0,1,1,.84,0Zm1.73,0H35V28.82a.42.42,0,1,1,.84,0Zm4,21H38.47v-8.9a.69.69,0,1,1,1.37,0Zm-12,10.27a1.69,1.69,0,0,0-1.73,1.65V71h3.46V67.21A1.69,1.69,0,0,0,27.81,65.56Z"/></g></g></g></g></svg>