<svg xmlns="http://www.w3.org/2000/svg" viewBox="0 0 63 63"><defs><style>.cls-1{isolation:isolate;}.cls-2{fill:#fff;fill-rule:evenodd;}</style></defs><title>item 4-4</title><g id="Слой_2" data-name="Слой 2"><g id="Мегадор" class="cls-1"><g id="_3" data-name="3"><g id="Shape_26" data-name="Shape 26"><path class="cls-2" d="M16.24,63H61.88V57.75H16.24ZM61.73,16.35,49.38,2.7a.89.89,0,0,0-.25-.2,3.41,3.41,0,0,0-6.58,0L8.6,16.35H0V20.6H6.63V30L2.07,34.5a1,1,0,0,0-.3.7H0v7.15H4.1v-6a1,1,0,0,1,2,0v6.1h3V36.3a1,1,0,0,1,2,0v6.1h4.1V35.2H13.41a1,1,0,0,0-.3-.7L8.55,30V20.6H63V16.35Zm-50.5,18.9H3.9L7.54,32h.3Zm33.55-18.9H14L42.66,4.6a3.28,3.28,0,0,0,2.12,2Zm2.07.05V6.6a3.57,3.57,0,0,0,1.92-1.5L58.95,16.4Zm6.73,38.85V23.15a1,1,0,0,0-1-1H39.06v34H52.57v.05A1,1,0,0,0,53.58,55.25ZM41,23.65l5.72,7.5L41,36.5Zm0,18.1,5.72,7.5L41,54.65ZM47.11,55.2H43.36l3.74-3.5Zm0-8.9-5.62-7.4,5.62-5.3Zm0-18.1-3.84-5h3.84Z"/></g></g></g></g></svg>