<?xml version="1.0" encoding="UTF-8" standalone="no"?>
<svg
   xmlns:dc="http://purl.org/dc/elements/1.1/"
   xmlns:cc="http://creativecommons.org/ns#"
   xmlns:rdf="http://www.w3.org/1999/02/22-rdf-syntax-ns#"
   xmlns:svg="http://www.w3.org/2000/svg"
   xmlns="http://www.w3.org/2000/svg"
   xmlns:xlink="http://www.w3.org/1999/xlink"
   xmlns:sodipodi="http://sodipodi.sourceforge.net/DTD/sodipodi-0.dtd"
   xmlns:inkscape="http://www.inkscape.org/namespaces/inkscape"
   width="73"
   height="44"
   viewBox="0 0 73 44"
   version="1.1"
   id="svg859"
   sodipodi:docname="logo-site-master.svg"
   inkscape:version="0.92.2 (5c3e80d, 2017-08-06)">
  <metadata
     id="metadata863">
    <rdf:RDF>
      <cc:Work
         rdf:about="">
        <dc:format>image/svg+xml</dc:format>
        <dc:type
           rdf:resource="http://purl.org/dc/dcmitype/StillImage" />
      </cc:Work>
    </rdf:RDF>
  </metadata>
  <sodipodi:namedview
     pagecolor="#ffffff"
     bordercolor="#666666"
     borderopacity="1"
     objecttolerance="10"
     gridtolerance="10"
     guidetolerance="10"
     inkscape:pageopacity="0"
     inkscape:pageshadow="2"
     inkscape:window-width="1920"
     inkscape:window-height="1018"
     id="namedview861"
     showgrid="false"
     inkscape:zoom="5.2054795"
     inkscape:cx="36.5"
     inkscape:cy="3.5414004"
     inkscape:window-x="-8"
     inkscape:window-y="-8"
     inkscape:window-maximized="1"
     inkscape:current-layer="svg859" />
  <defs
     id="defs851">
    <path
       id="bcrpa"
       d="M388.67 812.86c0 .96-.77 1.73-1.71 1.73h-.05c-.95 0-1.72-.77-1.72-1.73v-16.13c0-.96.77-1.73 1.72-1.73h.05c.94 0 1.71.77 1.71 1.73zm-8.63-.03v-13.01c0-.95.8-1.73 1.74-1.73s1.73.78 1.73 1.73v13c0 .96-.8 1.74-1.73 1.74-.95 0-1.74-.78-1.74-1.73zm20.62 13.35v.04A12.87 12.87 0 0 1 387.86 839 12.9 12.9 0 0 1 375 826.07v-18.7c0-.95.8-1.72 1.74-1.72s1.74.77 1.74 1.72l.01 18.7a9.44 9.44 0 0 0 9.4 9.47 9.45 9.45 0 0 0 9.42-9.47v-9.79c0-.94.73-1.68 1.67-1.69.94 0 1.68.75 1.68 1.7v9.9zm-1.7-11.59h.03a1.95 1.95 0 0 0-.02 0zm-15.45 5.35c.71 0 1.29.58 1.29 1.3a1.3 1.3 0 0 1-2.57 0c0-.72.57-1.3 1.28-1.3zm9.88 1.3c0 .71-.57 1.29-1.28 1.29a1.3 1.3 0 0 1-1.29-1.3c0-.71.58-1.3 1.29-1.3.7 0 1.28.59 1.28 1.3zm-10.77 7.32h.01a.37.37 0 0 1 .35-.47c.16 0 .3.1.35.24a4.8 4.8 0 0 0 4.55 3.31 4.8 4.8 0 0 0 4.52-3.24c.04-.17.18-.3.36-.3a.37.37 0 0 1 .34.53 5.2 5.2 0 0 1-5.22 3.75 5.26 5.26 0 0 1-5.26-3.82zm7.63-14.34a5.2 5.2 0 0 1 4.95-6.75c1.2 0 2.3.4 3.18 1.1a1.73 1.73 0 0 1-.94 3.18c-.4 0-.76-.14-1.05-.37v.01a1.73 1.73 0 0 0-1.2-.47c-.96 0-1.74.79-1.74 1.77 0 .07 0 .15.02.22a1.76 1.76 0 0 1-1.56 2.54c-.78 0-1.44-.52-1.66-1.23zm20.37 5.6c0 .7-.24 1.22-.71 1.58-.48.36-1.2.55-2.14.55-.5 0-.9-.04-1.25-.1a4.71 4.71 0 0 1-.96-.3v-1.52a6.3 6.3 0 0 0 2.26.57c.67 0 1-.2 1-.58a.49.49 0 0 0-.13-.35c-.1-.1-.24-.2-.46-.31-.21-.12-.5-.25-.86-.4-.51-.22-.9-.42-1.13-.6-.25-.2-.42-.4-.53-.64a2.11 2.11 0 0 1-.17-.89c0-.6.23-1.06.7-1.39.46-.33 1.1-.49 1.96-.49.8 0 1.59.18 2.35.53l-.55 1.33c-.34-.15-.65-.26-.94-.36-.3-.09-.6-.14-.9-.14-.53 0-.8.15-.8.44 0 .17.08.31.26.43.17.12.55.3 1.14.54.52.21.9.41 1.15.6.24.18.42.4.54.64.11.24.17.53.17.86zm1.35-6.49c0-.6.33-.9 1-.9.65 0 .98.3.98.9 0 .29-.08.51-.24.67-.17.16-.42.24-.75.24-.66 0-1-.3-1-.9zm1.9 8.5h-1.83v-6.75h1.83zm4.74-1.35c.32 0 .7-.07 1.15-.21v1.37c-.46.2-1.02.3-1.68.3-.73 0-1.26-.18-1.6-.55-.33-.37-.5-.93-.5-1.68v-3.25h-.87v-.78l1-.62.53-1.42h1.17v1.44h1.87v1.38h-1.87v3.25c0 .26.07.46.22.58.14.13.34.19.58.19zm5.53 1.47c-1.08 0-1.92-.3-2.53-.9-.6-.6-.9-1.45-.9-2.55 0-1.13.27-2 .83-2.62a2.98 2.98 0 0 1 2.33-.93c.94 0 1.68.27 2.2.81.53.55.8 1.3.8 2.26v.89h-4.32c.02.52.18.93.46 1.22.29.3.7.45 1.21.45a4.97 4.97 0 0 0 2.27-.54v1.43c-.32.16-.66.28-1.02.36-.37.08-.8.12-1.33.12zm-.26-5.7c-.39 0-.69.13-.9.38-.23.25-.35.6-.39 1.05h2.57c-.01-.45-.13-.8-.36-1.05a1.19 1.19 0 0 0-.92-.37zm-12.34 16.13h-1.83v-3.94a2 2 0 0 0-.24-1.1c-.16-.24-.42-.36-.76-.36-.47 0-.81.17-1.02.51-.21.35-.32.92-.32 1.71v3.18h-1.83v-6.75h1.4l.24.86h.1c.19-.3.45-.55.78-.73a2.5 2.5 0 0 1 1.17-.26c1 0 1.68.33 2.04 1h.16c.18-.32.44-.57.8-.74.34-.17.73-.26 1.17-.26.76 0 1.34.2 1.73.6.38.38.58 1.01.58 1.88v4.4h-1.83v-3.94a2 2 0 0 0-.25-1.1c-.16-.24-.41-.36-.76-.36-.45 0-.78.16-1 .48-.22.32-.33.83-.33 1.53zm10.3 0l-.36-.92h-.05c-.3.4-.62.66-.95.81-.32.15-.75.23-1.27.23-.64 0-1.15-.19-1.52-.56-.37-.37-.55-.9-.55-1.58 0-.71.25-1.24.74-1.58a4.3 4.3 0 0 1 2.25-.57l1.16-.03v-.3c0-.68-.34-1.03-1.04-1.03a4.7 4.7 0 0 0-1.88.5l-.6-1.25c.76-.4 1.62-.61 2.55-.61.9 0 1.6.2 2.07.6.48.39.72.99.72 1.79v4.5zm-.55-3.13l-.7.03c-.53.01-.93.1-1.19.28-.26.18-.39.45-.39.81 0 .52.3.78.89.78.42 0 .76-.12 1.01-.37.26-.24.38-.57.38-.97zm8.37 1.12c0 .7-.24 1.22-.72 1.59-.48.36-1.19.54-2.14.54-.48 0-.9-.03-1.24-.1a4.71 4.71 0 0 1-.97-.3v-1.52a6.3 6.3 0 0 0 2.27.57c.66 0 1-.2 1-.58a.49.49 0 0 0-.14-.35c-.08-.1-.24-.2-.45-.3-.22-.12-.5-.26-.86-.4-.52-.23-.9-.43-1.14-.61a1.7 1.7 0 0 1-.52-.64 2.11 2.11 0 0 1-.17-.88c0-.6.23-1.07.7-1.4.45-.32 1.1-.49 1.95-.49.8 0 1.6.18 2.36.53l-.56 1.33c-.33-.14-.64-.26-.93-.35-.3-.1-.6-.14-.9-.14-.54 0-.8.14-.8.44 0 .16.08.3.26.43.17.12.55.3 1.14.53.52.22.9.42 1.15.6.24.19.42.4.53.64.12.24.18.53.18.86zm4.24.66c.32 0 .7-.07 1.15-.21v1.37c-.45.2-1.01.3-1.67.3-.73 0-1.27-.18-1.6-.55-.33-.37-.5-.93-.5-1.67V827h-.87v-.78l1-.61.53-1.43h1.17v1.44h1.87V827h-1.87v3.26c0 .26.07.45.21.57.15.13.34.2.58.2zm5.53 1.47c-1.07 0-1.92-.3-2.52-.9-.6-.6-.91-1.45-.91-2.55 0-1.13.28-2 .84-2.62a2.98 2.98 0 0 1 2.32-.93c.95 0 1.69.27 2.21.82.53.54.8 1.3.8 2.25v.9h-4.32c.02.52.17.92.46 1.22.29.3.69.44 1.2.44a4.97 4.97 0 0 0 2.28-.53v1.42c-.32.16-.66.28-1.03.36-.36.08-.8.12-1.33.12zm-.25-5.69c-.39 0-.7.13-.91.37-.22.25-.35.6-.38 1.06h2.56c0-.46-.12-.8-.35-1.06a1.19 1.19 0 0 0-.92-.37zm8.2-1.3c.25 0 .46.01.62.05l-.14 1.72a2.08 2.08 0 0 0-.54-.06c-.58 0-1.03.15-1.36.46-.32.3-.49.72-.49 1.26v3.44h-1.82v-6.75h1.38l.27 1.13h.09c.2-.37.49-.68.84-.91.35-.23.74-.35 1.15-.35z" />
  </defs>
  <g
     id="g857">
    <g
       transform="translate(-375 -795)"
       id="g855">
      <use
         fill="#068689"
         xlink:href="#bcrpa"
         id="use853"
         style="fill:#47312b;fill-opacity:1" />
    </g>
  </g>
</svg>
