<svg xmlns="http://www.w3.org/2000/svg" width="42" height="42" viewBox="0 0 42 42">
  <metadata><?xpacket begin="﻿" id="W5M0MpCehiHzreSzNTczkc9d"?>
<x:xmpmeta xmlns:x="adobe:ns:meta/" x:xmptk="Adobe XMP Core 5.6-c142 79.160924, 2017/07/13-01:06:39        ">
   <rdf:RDF xmlns:rdf="http://www.w3.org/1999/02/22-rdf-syntax-ns#">
      <rdf:Description rdf:about=""/>
   </rdf:RDF>
</x:xmpmeta>
                                                                                                    
                                                                                                    
                                                                                                    
                                                                                                    
                                                                                                    
                                                                                                    
                                                                                                    
                                                                                                    
                                                                                                    
                                                                                                    
                                                                                                    
                                                                                                    
                                                                                                    
                                                                                                    
                                                                                                    
                                                                                                    
                                                                                                    
                                                                                                    
                                                                                                    
                                                                                                    
                           
<?xpacket end="w"?></metadata>
<defs>
    <style>
      .cls-1 {
        fill: #fff;
        fill-rule: evenodd;
      }
    </style>
  </defs>
  <path id="pdf" class="cls-1" d="M472.2,6731a4.685,4.685,0,0,0-4.667,4.67c0,3.18,1.769,7.13,3.632,10.85a91.822,91.822,0,0,1-5.222,13.56c-4.325,1.69-8.181,2.96-10.5,4.83a0.713,0.713,0,0,0-.1.11,4.693,4.693,0,0,0,3.324,7.98,4.63,4.63,0,0,0,3.325-1.36c0.03-.02.059-0.05,0.087-0.07a60.781,60.781,0,0,0,5.514-9.12,98.585,98.585,0,0,1,12.643-4.27,19.046,19.046,0,0,0,11.1,4.09,4.67,4.67,0,0,0,0-9.34,37.49,37.49,0,0,0-10.384,2.13,34.548,34.548,0,0,1-6.767-8.81c1.239-3.81,2.684-7.63,2.684-10.58A4.685,4.685,0,0,0,472.2,6731Zm0,2.8a1.848,1.848,0,0,1,1.867,1.87,29.963,29.963,0,0,1-1.62,6.75c-1.161-2.7-2.114-5.29-2.114-6.75A1.847,1.847,0,0,1,472.2,6733.8Zm0.8,15.97a37.332,37.332,0,0,0,4.841,6.15c-2.767.76-5.47,1.73-8.137,2.74C470.992,6755.76,472.024,6752.74,473,6749.77Zm18.331,5.96a1.87,1.87,0,0,1,0,3.74,17.3,17.3,0,0,1-7.481-2.28A33.956,33.956,0,0,1,491.332,6755.73Zm-27.855,8.36a44.931,44.931,0,0,1-3.529,5.63,1.767,1.767,0,0,1-1.283.48,1.848,1.848,0,0,1-1.867-1.87,2.024,2.024,0,0,1,.5-1.3A31.951,31.951,0,0,1,463.477,6764.09Z" transform="translate(-454 -6731)"/>
</svg>
