<?xml version="1.0" encoding="UTF-8" standalone="no"?>
<!-- Generator: Adobe Illustrator 19.0.0, SVG Export Plug-In . SVG Version: 6.00 Build 0)  -->

<svg
   xmlns:dc="http://purl.org/dc/elements/1.1/"
   xmlns:cc="http://creativecommons.org/ns#"
   xmlns:rdf="http://www.w3.org/1999/02/22-rdf-syntax-ns#"
   xmlns:svg="http://www.w3.org/2000/svg"
   xmlns="http://www.w3.org/2000/svg"
   xmlns:sodipodi="http://sodipodi.sourceforge.net/DTD/sodipodi-0.dtd"
   xmlns:inkscape="http://www.inkscape.org/namespaces/inkscape"
   version="1.1"
   id="Capa_1"
   x="0px"
   y="0px"
   viewBox="0 0 29.731 29.731"
   style="enable-background:new 0 0 29.731 29.731;"
   xml:space="preserve"
   sodipodi:docname="phonecall2.svg"
   inkscape:version="0.92.1 r15371"><metadata
     id="metadata3719"><rdf:RDF><cc:Work
         rdf:about=""><dc:format>image/svg+xml</dc:format><dc:type
           rdf:resource="http://purl.org/dc/dcmitype/StillImage" /></cc:Work></rdf:RDF></metadata><defs
     id="defs3717" /><sodipodi:namedview
     pagecolor="#ffffff"
     bordercolor="#666666"
     borderopacity="1"
     objecttolerance="10"
     gridtolerance="10"
     guidetolerance="10"
     inkscape:pageopacity="0"
     inkscape:pageshadow="2"
     inkscape:window-width="1920"
     inkscape:window-height="1017"
     id="namedview3715"
     showgrid="false"
     inkscape:zoom="20.168394"
     inkscape:cx="17.470375"
     inkscape:cy="12.605826"
     inkscape:window-x="-8"
     inkscape:window-y="-8"
     inkscape:window-maximized="1"
     inkscape:current-layer="Capa_1" /><g
     id="g3682"><path
       d="m 23.895,29.731 c -1.237,0 -2.731,-0.31 -4.374,-0.93 C 15.919,27.443 12,24.759 8.486,21.245 4.971,17.73 2.287,13.81 0.928,10.208 -0.307,6.933 -0.31,4.245 0.921,3.015 1.098,2.838 1.278,2.648 1.464,2.452 2.587,1.271 3.856,-0.058 5.538,0.002 6.697,0.05 7.82,0.77 8.97,2.201 12.368,6.427 10.836,7.933 9.063,9.679 L 8.75,9.989 c -0.29,0.29 -0.838,1.633 4.26,6.731 1.664,1.664 3.083,2.882 4.217,3.619 0.714,0.464 1.991,1.166 2.515,0.642 l 0.315,-0.318 c 1.744,-1.769 3.25,-3.296 7.473,0.099 1.431,1.15 2.15,2.272 2.198,3.433 0.069,1.681 -1.27,2.953 -2.452,4.075 -0.195,0.186 -0.385,0.366 -0.562,0.542 -0.611,0.612 -1.588,0.919 -2.819,0.919 z"
       id="path3680"
       inkscape:connector-curvature="0"
       sodipodi:nodetypes="scscccccccscccccccs"
       style="fill:#ffffff" /></g><g
     id="g3684" /><g
     id="g3686" /><g
     id="g3688" /><g
     id="g3690" /><g
     id="g3692" /><g
     id="g3694" /><g
     id="g3696" /><g
     id="g3698" /><g
     id="g3700" /><g
     id="g3702" /><g
     id="g3704" /><g
     id="g3706" /><g
     id="g3708" /><g
     id="g3710" /><g
     id="g3712" /></svg>